<?xml version="1.0" encoding="utf-8"?>
<!-- Generator: Adobe Illustrator 19.1.0, SVG Export Plug-In . SVG Version: 6.00 Build 0)  -->
<svg version="1.1" id="Layer_1" xmlns="http://www.w3.org/2000/svg" xmlns:xlink="http://www.w3.org/1999/xlink" x="0px" y="0px"
	 viewBox="0 0 205.7 31.3" style="enable-background:new 0 0 205.7 31.3;" xml:space="preserve">
<style type="text/css">
	.st0{fill:url(#SVGID_1_);}
	.st1{fill:url(#SVGID_2_);}
	.st2{fill:url(#SVGID_3_);}
	.st3{fill:url(#SVGID_4_);}
	.st4{fill:#010101;}
</style>
<g>
	<g>
		<linearGradient id="SVGID_1_" gradientUnits="userSpaceOnUse" x1="0" y1="5.8755" x2="11.6723" y2="5.8755">
			<stop  offset="0" style="stop-color:#7B72AE"/>
			<stop  offset="1" style="stop-color:#2D77A9"/>
		</linearGradient>
		<path class="st0" d="M2.5,8.2c0.2-1.6,0.8-2.9,1.8-3.9c0.9-0.9,2-1.5,3.4-1.7c0,0,0.3,0,0.4-0.1c0.3-0.3,0.7-0.5,1-0.8l0.2-0.2
			c0.3-0.2,0.7-0.5,1-0.7l0.2-0.1c0.3-0.2,0.7-0.4,1.1-0.6C10.9,0.1,10.1,0,9.4,0C6.6,0,4.3,0.9,2.6,2.6C2.1,3,1.7,3.6,1.4,4.1
			C1.3,4.2,1.3,4.3,1.2,4.4C1.1,4.6,1,4.8,0.9,5C0.7,5.5,0.5,6.1,0.3,6.7l0,0.1C0.2,7.1,0.2,7.4,0.1,7.7C0.1,8,0,8.3,0,8.6
			c-0.1,1,0,2,0.2,3.1C0.9,10.5,1.6,9.3,2.5,8.2z"/>
		<linearGradient id="SVGID_2_" gradientUnits="userSpaceOnUse" x1="18.0829" y1="17.8324" x2="30.7372" y2="17.8324">
			<stop  offset="0" style="stop-color:#7B72AE"/>
			<stop  offset="1" style="stop-color:#2D77A9"/>
		</linearGradient>
		<path class="st1" d="M27.2,11c-0.1-0.1-0.1-0.1-0.2-0.2l-0.1-0.2c-0.1-0.2-0.3-0.4-0.4-0.6l0-0.1c-0.8-1.1-1.7-2.1-2.6-3
			c-0.7-0.7-1.4-1.4-2.2-2c-0.1,0-0.2,0-0.2,0c-0.3,0-0.6,0-0.9,0.1l-0.2,0c-0.3,0-0.7,0.1-1,0.2l-0.1,0c-0.4,0.1-0.7,0.2-1.1,0.3
			c2.9,1.9,4.9,4,5.4,4.7l0.1,0.1c0.8,1.1,3.1,3.9,4.2,7.5c0.1,0.3,0.1,0.5,0.2,0.8c0,0.1,0,0.2,0.1,0.4c0,0.2,0.1,0.4,0.1,0.6
			c0.4,2.9-0.2,5.3-1.7,6.8c-1,1-2.3,1.6-3.9,1.8c-1.1,0.9-2.3,1.6-3.5,2.3c0.4,0.1,0.8,0.1,1.1,0.1l0.2,0c0.4,0,0.7,0,1,0
			c2.2,0,4.1-0.5,5.6-1.6c2.1-1.5,3.2-3.5,3.6-6.4C31,20,30.3,15.5,27.2,11z"/>
		<linearGradient id="SVGID_3_" gradientUnits="userSpaceOnUse" x1="4.907" y1="21.9747" x2="12.505" y2="21.9747">
			<stop  offset="0" style="stop-color:#7B72AE"/>
			<stop  offset="1" style="stop-color:#2D77A9"/>
		</linearGradient>
		<path class="st2" d="M5.4,18.2c-0.4,1.1-0.5,2.2-0.5,3.2c0,0.1,0,0.1,0,0.2c0.6,0.8,1.3,1.5,2,2.2c0.7,0.7,1.4,1.4,2.2,2
			c0.1,0,0.2,0,0.2,0c1,0,2-0.2,3.1-0.5c-1.4-0.9-2.7-2-3.9-3.2C7.4,20.9,6.4,19.6,5.4,18.2z"/>
		<linearGradient id="SVGID_4_" gradientUnits="userSpaceOnUse" x1="5.863786e-002" y1="15.3525" x2="30.6547" y2="15.3525">
			<stop  offset="0" style="stop-color:#7B72AE"/>
			<stop  offset="1" style="stop-color:#2D77A9"/>
		</linearGradient>
		<path class="st3" d="M23.8,23.8c0.4-0.4,0.7-0.7,1.1-1.1c0.3-0.3,0.6-0.7,0.9-1c0-0.5,0-1.1-0.1-1.6c0-0.2-0.1-0.3-0.1-0.5
			c0-0.1,0-0.2-0.1-0.3c-0.1-0.2-0.1-0.5-0.2-0.7c0-0.1-0.1-0.2-0.1-0.3c0,0.1-0.1,0.1-0.1,0.2c-0.9,1.3-1.9,2.5-3,3.6
			c-1.9,1.9-4.2,3.5-6.5,4.6c-1.7,0.8-3.3,1.3-4.9,1.5c-0.5,0.1-0.9,0.1-1.3,0.1c-2.1,0-3.8-0.6-5.1-1.9c-1.2-1.2-1.9-3-1.9-5
			c0-0.4,0-0.9,0.1-1.4c0.2-1.6,0.7-3.2,1.5-4.9c1.1-2.3,2.7-4.5,4.6-6.4c3.8-3.8,8.7-6.2,12.7-6.2c2.1,0,3.8,0.6,5.1,1.9
			c1,1,1.6,2.3,1.8,3.8l0,0c0.1,0.1,0.1,0.2,0.2,0.3l0.1,0.1c0.2,0.2,0.3,0.4,0.5,0.6l0.3,0.4c0.4,0.6,0.8,1.3,1.2,2
			c0.6-3.7-0.2-6.8-2.4-9C26.4,0.9,24.1,0,21.3,0C16.6,0,11.2,2.6,6.9,6.9c-1.2,1.2-2.4,2.6-3.3,4c-1,1.5-1.8,3.1-2.4,4.7
			c-1.9,5-1.4,9.7,1.4,12.5c1.7,1.7,4,2.6,6.8,2.6c1.8,0,3.8-0.4,5.8-1.2c1.6-0.6,3.1-1.4,4.6-2.4C21.2,26.2,22.5,25,23.8,23.8z"/>
	</g>
	<g>
		<path class="st4" d="M52.4,7.4h-8.6c-0.1,0-0.1,0-0.1,0.1v6.4c0,0.1,0,0.1,0.1,0.1h5.6c0.2,0,0.3,0.1,0.3,0.3v1.9
			c0,0.2-0.1,0.3-0.3,0.3h-5.6c-0.1,0-0.1,0-0.1,0.1v6.5c0,0.1,0,0.1,0.1,0.1h8.6c0.2,0,0.3,0.1,0.3,0.3v1.9c0,0.2-0.1,0.3-0.3,0.3
			H41.2c-0.2,0-0.3-0.1-0.3-0.3V5.3C40.9,5.1,41,5,41.2,5h11.2c0.2,0,0.3,0.1,0.3,0.3v1.9C52.7,7.3,52.6,7.4,52.4,7.4z"/>
		<path class="st4" d="M65.5,11.7c0.8,0.9,1.2,2.1,1.2,3.7v10c0,0.2-0.1,0.3-0.3,0.3h-2.2c-0.2,0-0.3-0.1-0.3-0.3v-9.6
			c0-0.9-0.2-1.6-0.7-2.2c-0.5-0.5-1.1-0.8-1.9-0.8c-0.8,0-1.5,0.3-1.9,0.8c-0.5,0.5-0.7,1.3-0.7,2.2v9.5c0,0.2-0.1,0.3-0.3,0.3
			h-2.2c-0.2,0-0.3-0.1-0.3-0.3V10.9c0-0.2,0.1-0.3,0.3-0.3h2.2c0.2,0,0.3,0.1,0.3,0.3v0.9c0,0.1,0,0.1,0,0.1c0,0,0.1,0,0.1-0.1
			c0.8-1,1.9-1.4,3.4-1.4C63.6,10.4,64.7,10.8,65.5,11.7z"/>
		<path class="st4" d="M76.6,12.8h-2.6c-0.1,0-0.1,0-0.1,0.1V21c0,0.8,0.2,1.4,0.5,1.7s0.8,0.5,1.5,0.5h0.6c0.2,0,0.3,0.1,0.3,0.3
			v1.9c0,0.2-0.1,0.3-0.3,0.3l-1.2,0c-1.4,0-2.4-0.3-3.1-0.8c-0.7-0.5-1-1.5-1-2.9v-9.1c0-0.1,0-0.1-0.1-0.1h-1.4
			c-0.2,0-0.3-0.1-0.3-0.3v-1.6c0-0.2,0.1-0.3,0.3-0.3H71c0.1,0,0.1,0,0.1-0.1V7.1c0-0.2,0.1-0.3,0.3-0.3h2.2c0.2,0,0.3,0.1,0.3,0.3
			v3.4c0,0.1,0,0.1,0.1,0.1h2.6c0.2,0,0.3,0.1,0.3,0.3v1.6C76.9,12.7,76.8,12.8,76.6,12.8z"/>
		<path class="st4" d="M86.9,23c0.5-0.3,0.8-0.8,1-1.3c0.1-0.2,0.2-0.2,0.4-0.2l2,0.4c0.2,0.1,0.3,0.2,0.2,0.4c-0.4,1.2-1,2.1-2,2.7
			c-0.9,0.7-2.1,1-3.4,1c-1.5,0-2.8-0.4-3.7-1.2c-0.9-0.8-1.5-1.8-1.8-3.2c-0.1-0.6-0.2-1.1-0.2-1.8c0-0.6,0-1.4,0-2.5
			c0-1,0-1.8,0.1-2.4c0.2-1.4,0.8-2.5,1.7-3.3c1-0.8,2.2-1.3,3.7-1.3c1.6,0,3,0.5,4,1.4c1,0.9,1.6,2.1,1.7,3.7
			c0.1,0.7,0.1,1.9,0.1,3.7c0,0.2-0.1,0.3-0.3,0.3h-8.1c-0.1,0-0.1,0-0.1,0.1c0,0.6,0,1,0.1,1.4c0.1,0.7,0.4,1.3,0.9,1.8
			c0.5,0.5,1.2,0.7,2,0.7C85.9,23.4,86.4,23.3,86.9,23z M83.2,13.5c-0.5,0.5-0.8,1-0.9,1.8c-0.1,0.5-0.1,1.1-0.1,1.7
			c0,0.1,0,0.1,0.1,0.1h5.4c0.1,0,0.1,0,0.1-0.1c0-0.8-0.1-1.4-0.1-1.7c-0.1-0.7-0.4-1.3-0.9-1.8c-0.5-0.5-1.1-0.7-1.9-0.7
			C84.3,12.8,83.7,13.1,83.2,13.5z"/>
		<path class="st4" d="M101.6,10.8c0.1,0.1,0.2,0.2,0.1,0.4l-0.4,2.2c0,0.2-0.1,0.3-0.4,0.2c-0.3-0.1-0.6-0.1-1-0.1
			c-0.3,0-0.4,0-0.6,0c-0.8,0.1-1.4,0.4-1.9,1c-0.5,0.6-0.8,1.4-0.8,2.3v8.5c0,0.2-0.1,0.3-0.3,0.3h-2.2c-0.2,0-0.3-0.1-0.3-0.3
			V10.9c0-0.2,0.1-0.3,0.3-0.3h2.2c0.2,0,0.3,0.1,0.3,0.3v1.9c0,0.1,0,0.1,0,0.1c0,0,0.1,0,0.1,0c0.7-1.6,1.8-2.4,3.3-2.4
			C100.7,10.5,101.2,10.6,101.6,10.8z"/>
		<path class="st4" d="M115.4,18.1c0,1.3-0.1,2.4-0.3,3.4c-0.6,3-2.2,4.4-4.8,4.4c-1.4,0-2.5-0.5-3.2-1.5c0-0.1,0-0.1-0.1-0.1
			c0,0-0.1,0-0.1,0.1V31c0,0.2-0.1,0.3-0.3,0.3h-2.2c-0.2,0-0.3-0.1-0.3-0.3V10.9c0-0.2,0.1-0.3,0.3-0.3h2.2c0.2,0,0.3,0.1,0.3,0.3
			v0.9c0,0,0,0.1,0,0.1c0,0,0.1,0,0.1,0c0.7-1,1.8-1.5,3.3-1.5c1.2,0,2.2,0.4,3,1.1c0.7,0.7,1.3,1.8,1.6,3.3
			C115.3,15.7,115.4,16.9,115.4,18.1z M112.5,18.1c0-1.4-0.1-2.5-0.4-3.3c-0.2-0.7-0.5-1.2-0.9-1.5c-0.4-0.3-0.9-0.5-1.6-0.5
			c-0.6,0-1.1,0.2-1.5,0.5c-0.4,0.3-0.7,0.8-0.9,1.5c-0.2,0.8-0.4,1.9-0.4,3.3c0,1.5,0.1,2.6,0.4,3.4c0.2,0.6,0.5,1.1,0.8,1.4
			c0.4,0.3,0.8,0.5,1.4,0.5c1.1,0,2-0.6,2.4-1.9C112.4,20.7,112.5,19.6,112.5,18.1z"/>
		<path class="st4" d="M126.4,10.8c0.1,0.1,0.2,0.2,0.1,0.4l-0.4,2.2c0,0.2-0.1,0.3-0.4,0.2c-0.3-0.1-0.6-0.1-1-0.1
			c-0.3,0-0.4,0-0.6,0c-0.8,0.1-1.4,0.4-1.9,1c-0.5,0.6-0.8,1.4-0.8,2.3v8.5c0,0.2-0.1,0.3-0.3,0.3H119c-0.2,0-0.3-0.1-0.3-0.3V10.9
			c0-0.2,0.1-0.3,0.3-0.3h2.2c0.2,0,0.3,0.1,0.3,0.3v1.9c0,0.1,0,0.1,0,0.1c0,0,0.1,0,0.1,0c0.7-1.6,1.8-2.4,3.3-2.4
			C125.5,10.5,126,10.6,126.4,10.8z"/>
		<path class="st4" d="M129,7.7c-0.4-0.4-0.5-0.8-0.5-1.4c0-0.6,0.2-1,0.5-1.4c0.4-0.3,0.8-0.5,1.4-0.5s1,0.2,1.4,0.5
			c0.4,0.4,0.5,0.8,0.5,1.4s-0.2,1-0.5,1.4c-0.4,0.4-0.8,0.5-1.3,0.5C129.8,8.2,129.4,8.1,129,7.7z M128.9,25.4V10.9
			c0-0.2,0.1-0.3,0.3-0.3h2.2c0.2,0,0.3,0.1,0.3,0.3v14.5c0,0.2-0.1,0.3-0.3,0.3h-2.2C129,25.7,128.9,25.6,128.9,25.4z"/>
		<path class="st4" d="M136.5,24.7c-1-0.7-1.5-1.7-1.5-2.9v-0.3c0-0.2,0.1-0.3,0.3-0.3h2.1c0.2,0,0.3,0.1,0.3,0.3v0.2
			c0,0.5,0.3,1,0.8,1.4c0.5,0.4,1.1,0.6,1.9,0.6c0.7,0,1.4-0.2,1.8-0.6c0.5-0.4,0.7-0.8,0.7-1.4c0-0.4-0.1-0.8-0.4-1.1
			c-0.3-0.3-0.6-0.5-1-0.7c-0.4-0.2-1-0.4-1.7-0.6c-0.9-0.3-1.7-0.6-2.4-0.9c-0.6-0.3-1.2-0.8-1.6-1.4c-0.5-0.6-0.7-1.4-0.7-2.3
			c0-1.3,0.5-2.4,1.4-3.1c0.9-0.8,2.2-1.2,3.7-1.2c1.6,0,2.8,0.4,3.8,1.2c1,0.8,1.4,1.8,1.4,3.1v0.1c0,0.2-0.1,0.3-0.3,0.3h-2.1
			c-0.2,0-0.3-0.1-0.3-0.3v-0.1c0-0.6-0.2-1-0.7-1.4c-0.5-0.4-1.1-0.6-1.9-0.6c-0.7,0-1.3,0.2-1.8,0.5c-0.4,0.4-0.7,0.8-0.7,1.4
			c0,0.4,0.1,0.8,0.4,1c0.3,0.3,0.6,0.5,1,0.7c0.4,0.2,1,0.4,1.7,0.7c1,0.3,1.8,0.7,2.4,1c0.6,0.3,1.2,0.8,1.7,1.4
			c0.5,0.6,0.7,1.4,0.7,2.3c0,1.3-0.5,2.4-1.4,3.1c-1,0.8-2.3,1.2-3.9,1.2C138.8,25.8,137.5,25.5,136.5,24.7z"/>
		<path class="st4" d="M155.7,23c0.5-0.3,0.8-0.8,1-1.3c0.1-0.2,0.2-0.2,0.4-0.2l2,0.4c0.2,0.1,0.3,0.2,0.2,0.4
			c-0.4,1.2-1,2.1-2,2.7s-2.1,1-3.4,1c-1.5,0-2.8-0.4-3.7-1.2c-0.9-0.8-1.5-1.8-1.8-3.2c-0.1-0.6-0.2-1.1-0.2-1.8c0-0.6,0-1.4,0-2.5
			c0-1,0-1.8,0.1-2.4c0.2-1.4,0.8-2.5,1.7-3.3s2.2-1.3,3.7-1.3c1.6,0,3,0.5,4,1.4c1,0.9,1.6,2.1,1.7,3.7c0.1,0.7,0.1,1.9,0.1,3.7
			c0,0.2-0.1,0.3-0.3,0.3h-8.1c-0.1,0-0.1,0-0.1,0.1c0,0.6,0,1,0.1,1.4c0.1,0.7,0.4,1.3,0.9,1.8c0.5,0.5,1.2,0.7,2,0.7
			C154.7,23.4,155.3,23.3,155.7,23z M152,13.5c-0.5,0.5-0.8,1-0.9,1.8c-0.1,0.5-0.1,1.1-0.1,1.7c0,0.1,0,0.1,0.1,0.1h5.4
			c0.1,0,0.1,0,0.1-0.1c0-0.8-0.1-1.4-0.1-1.7c-0.1-0.7-0.4-1.3-0.9-1.8c-0.5-0.5-1.1-0.7-1.9-0.7C153.1,12.8,152.5,13.1,152,13.5z"
			/>
		<path class="st4" d="M179.7,24.2c-1.1,1-2.6,1.5-4.4,1.5h-6.2c-0.2,0-0.3-0.1-0.3-0.3V5.3c0-0.2,0.1-0.3,0.3-0.3h5.8
			c1.9,0,3.4,0.5,4.5,1.4c1.1,0.9,1.6,2.3,1.6,4.1c0,2.1-0.9,3.6-2.6,4.4c-0.1,0.1-0.1,0.1,0,0.1c0.9,0.5,1.6,1.1,2.1,2
			c0.5,0.8,0.7,1.8,0.7,3C181.4,21.8,180.8,23.2,179.7,24.2z M171.8,7.5v6.2c0,0.1,0,0.1,0.1,0.1h3.2c1,0,1.8-0.3,2.4-0.8
			c0.6-0.6,0.9-1.3,0.9-2.3c0-1-0.3-1.9-0.9-2.4c-0.6-0.6-1.4-0.9-2.4-0.9h-3.2C171.8,7.4,171.8,7.5,171.8,7.5z M177.7,22.2
			c0.6-0.6,0.9-1.5,0.9-2.6c0-1.1-0.3-1.9-0.9-2.6c-0.6-0.6-1.4-1-2.4-1h-3.3c-0.1,0-0.1,0-0.1,0.1v6.8c0,0.1,0,0.1,0.1,0.1h3.4
			C176.3,23.2,177.1,22.9,177.7,22.2z"/>
		<path class="st4" d="M186.2,24.7c-1-0.8-1.6-1.9-1.8-3.3c-0.2-1-0.2-2.1-0.2-3.3c0-1.2,0.1-2.3,0.2-3.3c0.2-1.4,0.8-2.4,1.8-3.3
			c1-0.8,2.2-1.2,3.8-1.2c1.5,0,2.8,0.4,3.8,1.2c1,0.8,1.6,1.9,1.8,3.2c0.2,0.8,0.2,2,0.2,3.3s-0.1,2.5-0.2,3.3
			c-0.2,1.4-0.8,2.5-1.8,3.3c-1,0.8-2.2,1.2-3.8,1.2C188.5,25.9,187.2,25.5,186.2,24.7z M191.9,22.8c0.5-0.5,0.8-1.1,0.9-1.8
			c0.1-0.9,0.1-1.8,0.1-2.8c0-1,0-2-0.1-2.8c-0.1-0.7-0.4-1.3-0.9-1.8c-0.5-0.5-1.1-0.7-1.9-0.7c-0.7,0-1.3,0.2-1.8,0.7
			c-0.5,0.5-0.8,1.1-0.9,1.8c-0.1,0.7-0.1,1.6-0.1,2.8c0,1.2,0,2.1,0.1,2.8c0.1,0.7,0.4,1.4,0.9,1.8c0.5,0.5,1.1,0.7,1.9,0.7
			C190.7,23.4,191.3,23.2,191.9,22.8z"/>
		<path class="st4" d="M205.4,12.8h-2.6c-0.1,0-0.1,0-0.1,0.1V21c0,0.8,0.2,1.4,0.5,1.7c0.3,0.3,0.8,0.5,1.5,0.5h0.6
			c0.2,0,0.3,0.1,0.3,0.3v1.9c0,0.2-0.1,0.3-0.3,0.3l-1.2,0c-1.4,0-2.4-0.3-3.1-0.8c-0.7-0.5-1-1.5-1-2.9v-9.1c0-0.1,0-0.1-0.1-0.1
			h-1.4c-0.2,0-0.3-0.1-0.3-0.3v-1.6c0-0.2,0.1-0.3,0.3-0.3h1.4c0.1,0,0.1,0,0.1-0.1V7.1c0-0.2,0.1-0.3,0.3-0.3h2.2
			c0.2,0,0.3,0.1,0.3,0.3v3.4c0,0.1,0,0.1,0.1,0.1h2.6c0.2,0,0.3,0.1,0.3,0.3v1.6C205.7,12.7,205.6,12.8,205.4,12.8z"/>
	</g>
</g>
</svg>
